<svg xmlns="http://www.w3.org/2000/svg" style="isolation:isolate" viewBox="0 0 116.23 123" width="154.973" height="164"><defs><clipPath id="a"><path d="M0 0h116.23v123H0z"/></clipPath></defs><g clip-path="url(#a)"><clipPath id="b"><path fill="#FFF" d="M0 0h116.23v123H0z"/></clipPath><g clip-path="url(#b)"><mask id="c"><path d="M51.418.21c18.814-1.161 40.355 2.11 51.09 19.507 3.121 8.433 4.998 15.883 5.574 22.294-2.217 4.877-7.645.117-11.976-.565-19.795-3.115-39.57-3.713-59.551-2.221l-25.081 5.573c-2.177-.163-3.998-1.676-3.716-4.645.92-12.984 5.851-25.803 17.65-32.512C32.828 4 41.517 1.54 51.418.21z" fill="#fff"/></mask><path d="M51.418.21c18.814-1.161 40.355 2.11 51.09 19.507 3.121 8.433 4.998 15.883 5.574 22.294-2.217 4.877-7.645.117-11.976-.565-19.795-3.115-39.57-3.713-59.551-2.221l-25.081 5.573c-2.177-.163-3.998-1.676-3.716-4.645.92-12.984 5.851-25.803 17.65-32.512C32.828 4 41.517 1.54 51.418.21z" fill="#FFF"/><path d="M51.418.21c18.814-1.161 40.355 2.11 51.09 19.507h0c3.121 8.433 4.998 15.883 5.574 22.294-2.217 4.877-7.645.117-11.976-.565-19.795-3.115-39.57-3.713-59.551-2.221h0l-25.081 5.573c-2.177-.163-3.998-1.676-3.716-4.645.92-12.984 5.851-25.803 17.65-32.512h0C32.828 4 41.517 1.54 51.418.21z" fill="#FFF" mask="url(#c)" vector-effect="non-scaling-stroke" stroke-width="2" stroke="#FFF" stroke-linecap="square" stroke-miterlimit="3"/><mask id="d"><path d="M21.384 69.374c.659-1.203 3.206 1.101 4.024 0 8.38-7.599 18.807-16.831 30.654-20.86 15.909 4.18 23.223 9.753 35.299 21.365.589 1.074 3.179.665 3.716 1.858l1.858 5.573c-2.585 7.571-7.211 12.234-13.934 13.934-8.459-4.26-15.641-9.815-21.599-16.721-2.516-.429-5.225.043-8.127 0-6.825 8.305-15.459 13.916-26.009 16.721-4.955-3.87-7.723-9.116-8.361-15.792a28.568 28.568 0 0 1 2.479-6.078zM10.545 54.087c2.787 0 4.353.948 4.645 2.787 1.1 5.642-1.266 10.545-7.149 12.076-.398 2.293-.493 3.602-.283 6.502q3.967 16.47 15.792 25.081c7.093.595 13.304-1.865 18.578-7.431q12.541-8.476 26.939-1.858c5.038 2.842 10.012 7.814 20.436 11.147 11.283-7.214 17.494-18.032 18.579-32.512q-8.825-1.394-7.432-13.005c1.083-1.858 2.651-2.768 4.645-2.787 18.134 16.936 11.929 48.536-5.574 63.167-4.873 3.407-9.809 5.283-14.862 5.573-8.992-.21-18.332-5.774-23.457-9.289-4.339-3.017-5.485-1.434-8.127-.929-9.822 7.216-19.055 11.298-27.867 10.218-7.608-3.717-11.147-6.967-14.863-10.218C1.256 102.391-.938 89.771.327 77.31 2.216 66.68 5.64 58.957 10.545 54.087z" fill-rule="evenodd" fill="#fff"/></mask><path d="M21.384 69.374c.659-1.203 3.206 1.101 4.024 0 8.38-7.599 18.807-16.831 30.654-20.86 15.909 4.18 23.223 9.753 35.299 21.365.589 1.074 3.179.665 3.716 1.858l1.858 5.573c-2.585 7.571-7.211 12.234-13.934 13.934-8.459-4.26-15.641-9.815-21.599-16.721-2.516-.429-5.225.043-8.127 0-6.825 8.305-15.459 13.916-26.009 16.721-4.955-3.87-7.723-9.116-8.361-15.792a28.568 28.568 0 0 1 2.479-6.078zM10.545 54.087c2.787 0 4.353.948 4.645 2.787 1.1 5.642-1.266 10.545-7.149 12.076-.398 2.293-.493 3.602-.283 6.502q3.967 16.47 15.792 25.081c7.093.595 13.304-1.865 18.578-7.431q12.541-8.476 26.939-1.858c5.038 2.842 10.012 7.814 20.436 11.147 11.283-7.214 17.494-18.032 18.579-32.512q-8.825-1.394-7.432-13.005c1.083-1.858 2.651-2.768 4.645-2.787 18.134 16.936 11.929 48.536-5.574 63.167-4.873 3.407-9.809 5.283-14.862 5.573-8.992-.21-18.332-5.774-23.457-9.289-4.339-3.017-5.485-1.434-8.127-.929-9.822 7.216-19.055 11.298-27.867 10.218-7.608-3.717-11.147-6.967-14.863-10.218C1.256 102.391-.938 89.771.327 77.31 2.216 66.68 5.64 58.957 10.545 54.087z" fill-rule="evenodd" fill="#FFF"/><path d="M21.384 69.374c.659-1.203 3.206 1.101 4.024 0 8.38-7.599 18.807-16.831 30.654-20.86 15.909 4.18 23.223 9.753 35.299 21.365.589 1.074 3.179.665 3.716 1.858h0l1.858 5.573c-2.585 7.571-7.211 12.234-13.934 13.934-8.459-4.26-15.641-9.815-21.599-16.721-2.516-.429-5.225.043-8.127 0-6.825 8.305-15.459 13.916-26.009 16.721-4.955-3.87-7.723-9.116-8.361-15.792a28.568 28.568 0 0 1 2.479-6.078zM10.545 54.087c2.787 0 4.353.948 4.645 2.787 1.1 5.642-1.266 10.545-7.149 12.076-.398 2.293-.493 3.602-.283 6.502q3.967 16.47 15.792 25.081c7.093.595 13.304-1.865 18.578-7.431q12.541-8.476 26.939-1.858c5.038 2.842 10.012 7.814 20.436 11.147 11.283-7.214 17.494-18.032 18.579-32.512q-8.825-1.394-7.432-13.005c1.083-1.858 2.651-2.768 4.645-2.787 18.134 16.936 11.929 48.536-5.574 63.167h0c-4.873 3.407-9.809 5.283-14.862 5.573-8.992-.21-18.332-5.774-23.457-9.289-4.339-3.017-5.485-1.434-8.127-.929-9.822 7.216-19.055 11.298-27.867 10.218-7.608-3.717-11.147-6.967-14.863-10.218C1.256 102.391-.938 89.771.327 77.31h0C2.216 66.68 5.64 58.957 10.545 54.087z" fill-rule="evenodd" fill="#FFF" mask="url(#d)" shape-rendering="geometricPrecision" stroke-width="2" stroke="#FFF" stroke-linecap="square" stroke-miterlimit="3"/></g></g></svg>